<svg xmlns="http://www.w3.org/2000/svg" xmlns:xlink="http://www.w3.org/1999/xlink" viewBox="0 0 30 45.88"><defs><style>.cls-1,.cls-2{fill:none;}.cls-1{clip-rule:evenodd;}.cls-3{clip-path:url(#clip-path);}.cls-4{clip-path:url(#clip-path-2);}.cls-5{fill:#503629;}.cls-6{clip-path:url(#clip-path-3);}.cls-7{clip-path:url(#clip-path-5);}.cls-8{fill:#fff;}.cls-9{clip-path:url(#clip-path-7);}.cls-10{clip-path:url(#clip-path-9);}.cls-11{clip-path:url(#clip-path-11);}</style><clipPath id="clip-path" transform="translate(5 5)"><polygon class="cls-1" points="0 31.03 15 35.88 15 11.35 0 8.88 0 31.03"/></clipPath><clipPath id="clip-path-2" transform="translate(5 5)"><rect class="cls-2" x="-1389" y="-12.12" width="1440" height="3797"/></clipPath><clipPath id="clip-path-3" transform="translate(5 5)"><polygon class="cls-1" points="16 11.51 16 35.88 20 32.96 20 9.88 16 11.51"/></clipPath><clipPath id="clip-path-5" transform="translate(5 5)"><polygon class="cls-1" points="19 12.88 18 13.28 18 31.88 19 31.23 19 12.88"/></clipPath><clipPath id="clip-path-7" transform="translate(5 5)"><polygon class="cls-1" points="2 26.88 2 28.1 13 31.88 13 30.66 2 26.88"/></clipPath><clipPath id="clip-path-9" transform="translate(5 5)"><path class="cls-1" d="M10,3.49a3.44,3.44,0,1,0-6.88,0V8.31l1.48.26V3.49a2,2,0,1,1,3.92,0V9.26L10,9.52Z"/></clipPath><clipPath id="clip-path-11" transform="translate(5 5)"><path class="cls-1" d="M17.87,4.54a3.45,3.45,0,1,0-6.89,0V8.71l1.49.23V4.54a2,2,0,1,1,3.92,0v5l1.48.24Z"/></clipPath></defs><g id="Layer_2" data-name="Layer 2"><g id="Layer_1-2" data-name="Layer 1"><g class="cls-3"><g class="cls-4"><rect class="cls-5" y="8.88" width="25" height="37"/></g></g><g class="cls-6"><g class="cls-4"><rect class="cls-5" x="16" y="9.88" width="14" height="36"/></g></g><g class="cls-7"><g class="cls-4"><rect class="cls-8" x="18" y="12.88" width="11" height="29"/></g></g><g class="cls-9"><g class="cls-4"><rect class="cls-8" x="2" y="26.88" width="21" height="15"/></g></g><g class="cls-10"><g class="cls-4"><rect class="cls-5" x="3.13" width="16.89" height="19.52"/></g></g><g class="cls-11"><g class="cls-4"><rect class="cls-5" x="10.98" y="1.05" width="16.89" height="18.73"/></g></g></g></g></svg>